<?xml version="1.0" standalone="no"?>
<!DOCTYPE svg PUBLIC "-//W3C//DTD SVG 20010904//EN"
 "http://www.w3.org/TR/2001/REC-SVG-20010904/DTD/svg10.dtd">
<svg version="1.0" xmlns="http://www.w3.org/2000/svg"
 width="260.000000pt" height="260.000000pt" viewBox="0 0 260.000000 260.000000"
 preserveAspectRatio="xMidYMid meet">
<metadata>
Created by potrace 1.14, written by Peter Selinger 2001-2017
</metadata>
<g transform="translate(0.000000,260.000000) scale(0.100000,-0.100000)"
fill="#000000" stroke="none">
<path d="M645 2503 c-11 -2 -26 -6 -33 -8 -7 -3 -16 -5 -20 -6 -4 -1 -25 -13
-47 -27 -50 -31 -89 -74 -118 -132 l-22 -45 0 -970 0 -970 23 -42 c35 -66 79
-110 140 -140 48 -24 69 -28 137 -28 69 1 87 4 134 30 29 16 70 49 92 73 74
85 72 53 71 903 -1 577 2 758 11 761 7 3 136 4 287 3 266 -1 277 -1 323 -24
98 -48 151 -131 150 -237 -2 -138 -102 -237 -255 -250 -107 -9 -154 -29 -219
-94 -94 -93 -113 -247 -43 -360 31 -51 81 -96 133 -121 39 -19 62 -23 151 -22
143 1 292 42 402 110 21 13 42 23 47 23 6 0 14 6 18 13 4 7 21 20 36 30 38 25
139 129 174 180 15 23 30 44 34 47 17 15 81 166 99 235 28 105 33 253 14 370
-9 50 -20 94 -25 100 -5 5 -9 16 -9 25 0 29 -89 190 -140 255 -110 138 -265
240 -450 296 -73 23 -87 23 -575 25 -275 1 -509 0 -520 -3z"/>
</g>
</svg>
